<?xml version="1.0" standalone="no"?>
<!DOCTYPE svg PUBLIC "-//W3C//DTD SVG 20010904//EN"
 "http://www.w3.org/TR/2001/REC-SVG-20010904/DTD/svg10.dtd">
<svg version="1.0" xmlns="http://www.w3.org/2000/svg"
 width="900.000000pt" height="1360.000000pt" viewBox="0 0 900.000000 1360.000000"
 preserveAspectRatio="xMidYMid meet">
<metadata>
Created by potrace 1.15, written by Peter Selinger 2001-2017
</metadata>
<g transform="translate(0.000000,1360.000000) scale(0.100000,-0.100000)"
fill="#000000" stroke="none">
<path d="M4906 12087 c-15 -11 -21 -30 -24 -81 -2 -36 -5 -66 -7 -66 -1 0 -16
7 -34 16 -56 28 -103 10 -138 -53 -31 -55 5 -134 69 -151 l30 -7 -25 -27 c-14
-15 -28 -37 -32 -48 -6 -20 -73 -89 -87 -90 -3 0 -17 19 -31 43 -28 48 -89
117 -103 117 -5 0 -18 8 -29 17 -19 15 -19 15 13 9 23 -4 32 -2 32 8 0 13 -41
36 -65 36 -7 0 -15 10 -17 23 -4 29 -83 68 -150 75 -48 5 -49 5 -43 32 8 38
-11 47 -43 21 -69 -55 -65 -54 -113 -26 -45 25 -79 32 -79 16 0 -6 9 -16 21
-24 23 -17 17 -23 -24 -25 -71 -5 -199 -95 -210 -149 -3 -15 -22 -46 -41 -68
-54 -61 -124 -210 -132 -277 -4 -32 -10 -58 -14 -58 -16 0 -19 -46 -4 -69 13
-19 14 -31 6 -60 -6 -20 -14 -63 -17 -96 -9 -84 -40 -193 -75 -267 -50 -103
-102 -172 -322 -420 -79 -89 -90 -111 -63 -122 13 -5 9 -15 -22 -55 -118 -153
-226 -298 -231 -309 -8 -21 65 19 129 70 71 57 109 81 117 73 4 -3 -10 -39
-31 -78 -99 -186 -119 -228 -114 -234 8 -7 57 24 78 51 34 42 30 6 -5 -52 -20
-33 -36 -69 -36 -80 0 -26 29 -36 50 -17 9 8 22 15 29 15 15 0 8 -26 -24 -90
-30 -59 -73 -187 -90 -269 -7 -36 -18 -77 -23 -91 l-10 -25 -11 28 c-6 16 -11
39 -11 53 0 13 -4 32 -9 42 -18 36 -54 151 -102 327 -6 22 -15 49 -20 60 -4
11 -33 97 -64 190 -31 94 -60 178 -65 187 -6 10 -10 26 -10 35 0 10 -15 62
-34 118 -19 55 -41 125 -50 155 -8 30 -25 89 -37 130 -11 41 -45 137 -75 212
-30 76 -54 141 -54 146 0 21 -42 92 -60 102 -24 13 -25 26 -5 64 8 15 15 54
15 85 0 51 3 59 25 71 30 16 31 22 5 45 -17 15 -19 26 -13 99 4 47 12 86 20
94 12 12 11 19 -4 46 -20 34 -30 140 -15 159 5 7 7 38 4 70 -3 43 -9 60 -23
68 -11 5 -19 20 -19 33 0 19 -10 29 -46 46 -49 24 -77 23 -170 -4 -27 -8 -82
-25 -122 -36 -63 -19 -73 -25 -77 -48 -3 -15 -12 -40 -20 -55 -8 -16 -15 -34
-15 -42 0 -7 -7 -18 -15 -25 -20 -17 -20 -109 0 -136 8 -10 15 -31 15 -46 0
-22 -5 -28 -22 -28 -21 0 -21 0 -2 -21 18 -20 18 -21 -15 -48 -39 -32 -37 -57
6 -67 15 -4 31 -12 35 -18 13 -18 9 -53 -7 -66 -20 -17 -19 -33 5 -82 11 -23
20 -54 20 -68 0 -14 7 -35 15 -46 8 -10 15 -28 15 -38 0 -11 7 -28 17 -38 15
-17 15 -19 -2 -38 -17 -18 -17 -21 -1 -45 9 -14 30 -76 46 -138 58 -224 203
-717 270 -917 5 -14 20 -65 35 -115 14 -49 32 -108 39 -130 7 -22 26 -80 41
-130 15 -49 41 -128 57 -175 16 -47 34 -101 39 -120 20 -74 33 -115 39 -125 4
-5 15 -44 25 -85 10 -41 32 -113 50 -160 17 -47 48 -139 69 -205 21 -66 49
-154 63 -195 39 -121 42 -109 -33 -165 -37 -27 -95 -69 -128 -91 -167 -111
-297 -335 -296 -507 1 -74 21 -235 38 -297 37 -135 109 -278 191 -377 20 -23
87 -126 109 -166 35 -64 26 -182 -17 -236 -55 -69 -103 -201 -73 -201 14 0 34
-123 33 -196 -1 -39 5 -111 13 -160 14 -83 17 -126 14 -216 -2 -49 51 -153
108 -211 42 -44 143 -107 171 -107 23 0 14 -18 -30 -65 -66 -69 -135 -221
-178 -395 -7 -30 -18 -58 -24 -62 -5 -4 -35 -12 -65 -18 -30 -6 -71 -15 -90
-20 -19 -5 -66 -16 -105 -26 -38 -9 -77 -21 -85 -24 -8 -4 -53 -22 -100 -40
-232 -90 -308 -137 -452 -277 -66 -63 -74 -82 -59 -132 61 -198 61 -200 68
-512 l6 -296 -26 -18 c-15 -9 -27 -21 -27 -25 0 -3 -26 -34 -59 -68 -32 -34
-54 -63 -48 -65 17 -5 -43 -75 -93 -107 -25 -16 -59 -43 -75 -60 -17 -17 -47
-41 -68 -53 -27 -15 -37 -27 -37 -45 0 -17 -4 -22 -14 -19 -8 3 -22 -1 -33 -8
-10 -8 -24 -15 -32 -15 -37 -1 -127 -100 -91 -100 5 0 7 -7 4 -15 -4 -8 -13
-15 -21 -15 -8 0 -40 -17 -71 -38 -56 -36 -56 -37 -27 -40 17 -1 55 -7 87 -13
31 -6 62 -8 70 -3 16 10 -26 21 -89 23 -24 0 -43 4 -43 9 0 10 81 42 107 42
12 0 26 -7 31 -16 6 -12 16 -14 32 -9 20 6 21 9 7 17 -22 12 -22 28 0 28 10 0
29 12 43 26 14 14 41 35 60 48 22 14 38 34 45 56 14 50 24 62 45 55 11 -3 32
6 58 27 23 18 53 41 67 52 15 10 42 41 60 70 18 28 47 62 66 75 l32 24 19 -23
c24 -30 16 -108 -13 -129 -10 -7 -19 -22 -19 -32 0 -27 -15 -31 -41 -10 -23
19 -24 18 -52 -3 -16 -11 -40 -31 -53 -43 -14 -13 -37 -29 -53 -37 -51 -27
-130 -96 -147 -128 l-16 -31 38 6 39 5 -31 -13 c-34 -15 -50 -40 -32 -51 7 -4
14 -2 16 4 6 18 30 14 28 -4 -1 -11 13 -21 38 -30 35 -13 42 -12 55 1 14 13
12 15 -12 15 -44 0 -31 14 31 32 50 15 58 15 68 3 6 -8 16 -15 22 -15 5 0 15
-14 21 -32 15 -42 2 -50 -71 -43 -48 5 -58 3 -58 -10 0 -9 9 -15 24 -15 31 0
106 -40 106 -57 0 -7 -7 -13 -16 -13 -8 0 -13 -4 -9 -10 3 -5 12 -7 20 -3 8 3
15 1 15 -4 0 -14 -32 -48 -52 -56 -10 -3 -18 -14 -18 -24 0 -11 -19 -30 -46
-46 -37 -22 -44 -30 -34 -42 15 -18 -15 -37 -85 -56 -62 -16 -125 -50 -169
-89 -39 -36 -100 -145 -91 -161 8 -12 85 67 85 87 0 24 12 44 27 44 12 0 12
-3 -1 -22 -9 -12 -16 -28 -16 -35 0 -23 30 -14 42 12 6 14 14 25 17 25 3 1 20
12 36 26 17 15 22 24 12 20 -9 -3 -17 -1 -17 4 0 6 9 10 20 10 11 0 20 5 20
10 0 6 25 10 56 10 46 0 55 3 50 15 -7 19 8 19 24 0 7 -8 19 -15 26 -15 7 0
31 -9 52 -20 39 -20 72 -18 72 4 0 11 -132 66 -158 66 -9 0 -9 6 0 22 17 29
35 46 126 112 29 21 59 51 67 67 8 15 28 48 45 72 16 25 30 47 30 51 0 3 24
40 53 81 66 96 77 115 77 140 0 11 6 27 13 36 12 16 121 89 133 89 7 0 37 25
101 86 30 29 43 49 43 69 0 19 -4 26 -14 22 -16 -6 -30 19 -16 28 6 4 10 14 9
23 0 14 -2 14 -6 2 -3 -8 -9 -17 -12 -20 -3 -3 -11 -14 -17 -25 -6 -12 -30
-25 -56 -31 -63 -16 -139 -51 -165 -76 -16 -14 -23 -33 -23 -57 -1 -26 -9 -45
-30 -69 -16 -17 -33 -32 -36 -32 -6 0 -3 29 15 115 6 28 13 122 16 210 2 88 6
219 9 290 3 88 2 111 -4 72 -4 -32 -10 -61 -14 -64 -3 -4 -6 101 -6 232 0 218
-2 243 -21 297 -12 32 -20 61 -17 63 3 3 33 -10 66 -29 34 -19 71 -38 84 -42
35 -11 216 -101 248 -124 15 -11 32 -20 37 -20 6 0 17 -8 27 -19 19 -21 25
-85 26 -263 0 -98 3 -118 15 -118 13 0 15 21 15 133 0 121 2 133 20 145 11 7
20 21 20 32 0 24 1 24 47 5 19 -8 48 -15 63 -15 15 0 40 -4 56 -9 16 -6 55
-15 88 -21 l59 -12 -7 -186 c-7 -189 -15 -287 -42 -487 -36 -274 -66 -422 -94
-470 -10 -16 -15 -36 -13 -42 4 -11 -23 -98 -34 -112 -6 -8 -33 34 -65 101
-32 69 -48 85 -48 48 0 -11 5 -20 10 -20 6 0 10 -11 10 -23 0 -13 19 -50 41
-82 l41 -59 -39 -75 c-38 -73 -63 -99 -63 -67 0 9 -5 16 -11 16 -5 0 -8 -4 -4
-9 3 -5 1 -12 -5 -16 -5 -3 -10 3 -10 14 0 12 -4 21 -10 21 -5 0 -10 -4 -10
-10 0 -5 -7 -7 -15 -4 -11 4 -15 0 -15 -16 0 -19 -2 -20 -15 -6 -17 17 -19 88
-5 176 5 30 12 78 15 105 6 54 1 48 -32 -40 -20 -51 -36 -86 -39 -82 -1 1 2
22 7 47 17 78 25 168 18 187 -9 22 -15 7 -23 -52 -9 -75 -18 -106 -30 -102 -6
2 -13 14 -14 27 l-4 24 -12 -23 -13 -23 -31 27 c-28 24 -36 26 -62 16 -17 -5
-30 -7 -30 -4 0 3 -6 1 -13 -5 -7 -6 -39 -21 -72 -33 -72 -27 -104 -48 -105
-70 0 -9 -7 -20 -16 -23 -8 -3 -13 -10 -10 -15 3 -5 -17 -29 -44 -55 -55 -52
-72 -78 -77 -119 -5 -45 49 -80 63 -42 4 8 17 15 30 15 14 0 24 6 24 14 0 8
17 20 38 27 42 14 143 18 135 5 -11 -18 25 -26 122 -26 102 -1 139 -12 133
-41 -2 -8 7 -15 20 -17 12 -2 22 2 22 8 0 9 57 40 73 40 2 0 2 -13 -1 -30 -4
-26 -8 -29 -31 -25 -14 3 -20 2 -14 -1 18 -8 16 -31 -5 -46 -10 -7 -38 -37
-62 -66 -33 -39 -41 -55 -31 -61 9 -6 5 -13 -15 -28 -16 -12 -24 -25 -20 -31
9 -15 58 -15 91 0 14 6 28 8 33 3 4 -4 1 -10 -5 -12 -24 -9 -13 -38 20 -53 17
-7 41 -22 51 -32 11 -10 23 -18 28 -18 19 0 5 -26 -31 -60 -21 -20 -45 -48
-52 -63 -20 -37 -117 -135 -151 -153 -15 -8 -40 -37 -55 -65 -16 -28 -36 -65
-46 -82 -32 -57 -9 -160 44 -188 72 -40 164 -74 303 -115 83 -24 99 -26 240
-21 135 4 160 8 240 35 99 34 188 90 298 189 40 36 82 69 93 74 11 5 40 22 65
37 25 16 68 37 95 46 28 10 64 24 80 31 17 7 71 25 120 40 144 44 173 56 200
82 46 47 46 181 0 225 -14 13 -25 33 -25 46 0 12 -9 41 -21 63 -11 23 -18 43
-15 46 10 10 96 -68 96 -87 0 -10 8 -21 19 -25 10 -3 31 -17 47 -30 32 -28 41
-26 24 4 -14 27 8 38 39 21 17 -9 21 -8 21 5 0 11 -12 15 -50 15 -55 0 -64 10
-25 28 21 10 27 9 32 -4 5 -13 7 -12 18 3 8 11 15 74 19 167 9 212 25 221 27
16 3 -227 0 -313 -10 -319 -5 -4 -6 -21 -4 -39 4 -26 8 -30 19 -21 10 9 14 9
14 0 0 -7 9 -9 25 -5 20 5 24 3 19 -10 -3 -8 -14 -18 -25 -21 -10 -4 -19 -13
-19 -21 0 -19 12 -18 37 5 34 32 76 49 113 44 129 -15 216 -44 242 -82 8 -12
24 -19 41 -18 41 3 35 33 -10 53 -21 9 -66 29 -99 45 -83 38 -140 50 -189 39
-28 -6 -42 -6 -47 3 -5 9 -10 9 -20 -1 -15 -15 -68 -16 -68 -1 0 6 7 35 16 64
8 30 19 82 23 117 6 48 9 54 10 25 1 -43 24 -48 29 -6 2 13 7 33 12 44 5 11
11 45 14 75 3 30 8 73 11 95 27 197 56 445 65 560 7 77 14 167 17 200 3 33 10
66 16 73 6 8 11 36 11 63 0 49 0 49 46 70 28 13 54 34 66 53 l18 31 13 -73 c6
-41 18 -80 24 -89 10 -11 13 -74 14 -231 0 -120 5 -229 9 -245 5 -17 4 -27 -2
-27 -19 0 -22 -32 -5 -61 10 -16 21 -29 25 -29 4 0 8 -5 8 -12 0 -9 -3 -9 -12
0 -16 16 -28 15 -28 -2 0 -8 10 -16 22 -18 22 -3 34 -33 17 -44 -5 -3 -8 0 -7
7 2 6 -2 13 -8 16 -13 4 -17 -64 -6 -107 5 -22 7 -20 13 15 5 30 6 22 4 -30
-2 -46 -6 -69 -14 -67 -8 1 -9 -11 -5 -39 4 -23 1 -64 -6 -95 -13 -52 -12 -56
17 -111 21 -42 28 -65 22 -83 -4 -14 -7 -36 -8 -49 -1 -18 3 -22 18 -18 26 6
31 -10 31 -91 0 -93 20 -127 96 -169 83 -45 196 -67 304 -59 47 3 126 9 177
12 65 5 118 2 185 -10 51 -9 160 -23 243 -32 82 -8 153 -18 158 -21 9 -5 180
-20 347 -29 90 -5 117 -3 185 16 44 12 94 26 110 30 33 8 128 44 162 62 31 15
47 60 38 105 -13 71 -7 147 13 163 27 22 31 41 16 72 -18 34 -135 92 -184 91
-42 -1 -51 3 -150 78 -64 48 -85 59 -112 57 -28 -3 -33 0 -33 20 0 17 -16 31
-59 58 -92 55 -114 87 -53 77 36 -5 101 22 103 45 1 6 2 17 3 22 0 6 26 22 56
36 31 15 58 30 60 35 7 10 78 -19 88 -37 9 -16 37 -7 37 12 0 9 11 13 35 12
19 -1 42 5 51 13 14 12 19 10 40 -16 13 -17 24 -33 24 -37 0 -5 10 -8 21 -8
12 0 31 -11 43 -24 19 -20 178 -116 195 -116 3 0 18 -6 32 -14 14 -7 43 -16
65 -19 l39 -6 -50 24 c-27 13 -71 33 -96 45 -47 22 -132 89 -113 90 5 0 19 -7
30 -15 10 -8 25 -15 32 -15 7 0 38 -11 68 -25 30 -14 60 -25 67 -25 7 0 18 -5
24 -11 16 -16 153 -25 153 -10 0 14 37 14 42 0 3 -8 15 -7 41 6 24 11 53 16
87 13 27 -1 50 -1 50 2 0 3 -14 22 -31 43 -17 20 -26 37 -20 37 5 0 13 -5 16
-10 9 -14 21 -5 28 20 4 16 1 19 -16 16 -12 -2 -16 -1 -9 1 18 7 15 21 -14 58
-16 22 -31 32 -41 28 -11 -4 -11 -8 -3 -13 8 -5 9 -10 2 -14 -6 -3 -14 4 -18
16 -13 43 -43 76 -63 71 -10 -3 -22 0 -25 6 -4 6 -16 11 -26 11 -13 0 -17 5
-14 14 4 11 0 13 -15 9 -15 -4 -21 -1 -21 11 0 9 -8 16 -20 16 -12 0 -17 5
-14 14 3 9 -5 16 -23 21 -15 3 -30 10 -33 13 -3 4 -14 12 -24 17 -23 13 -31
65 -10 65 8 0 14 -4 14 -10 0 -5 9 -10 19 -10 11 0 23 -5 27 -11 4 -6 19 -9
36 -5 29 6 74 -13 253 -107 28 -15 75 -38 105 -51 69 -32 152 -104 186 -162
25 -42 44 -57 44 -33 0 39 -169 238 -203 240 -7 0 -3 4 8 9 13 5 26 3 37 -7
14 -13 17 -12 22 5 4 10 33 39 65 64 55 43 58 48 60 94 3 58 3 55 -2 117 -3
26 -1 50 4 53 14 8 10 24 -6 24 -8 0 -15 -7 -15 -15 0 -12 -7 -11 -37 6 -56
31 -63 39 -63 68 -1 24 -2 24 -14 8 -13 -16 -16 -16 -60 9 -25 14 -46 30 -46
35 0 5 -6 9 -13 9 -7 0 -36 11 -63 24 -63 30 -119 46 -166 46 -53 0 -162 77
-294 208 -24 23 -47 42 -52 42 -4 0 -25 18 -47 40 -34 35 -40 48 -46 102 -3
35 -18 88 -32 118 -14 30 -35 105 -47 165 -12 61 -26 128 -30 150 -9 42 1 65
27 65 8 0 11 5 8 10 -3 6 -15 10 -26 10 -25 0 -25 30 1 37 17 5 20 14 20 59 0
42 5 59 21 75 15 15 18 24 10 32 -6 6 -11 21 -11 33 0 13 -8 29 -18 36 -10 7
-30 33 -44 58 -32 55 -94 115 -168 164 -30 20 -59 39 -65 44 -5 4 -31 18 -57
30 -54 25 -53 17 -36 159 12 109 5 181 -29 288 -33 102 -62 124 -182 136 -47
5 -111 14 -141 19 -30 6 -73 14 -95 17 -22 3 -54 16 -71 29 -17 13 -41 24 -52
24 -12 0 -22 5 -22 11 0 11 -147 7 -180 -4 -33 -12 -109 -16 -115 -7 -3 6 1
10 10 10 8 0 23 4 33 9 9 5 25 12 35 15 10 3 15 10 12 16 -3 6 5 10 19 10 13
0 26 6 29 13 3 9 9 9 30 -2 16 -9 38 -11 61 -7 28 5 39 3 56 -14 11 -11 32
-19 48 -19 21 1 22 2 7 6 -11 3 -22 8 -25 12 -3 4 -16 15 -30 24 -20 14 -21
17 -6 17 19 0 83 -28 103 -45 30 -25 41 -32 80 -55 24 -13 46 -21 49 -17 3 3
-19 30 -49 60 -100 99 -232 145 -382 133 -113 -10 -197 -22 -220 -31 l-20 -8
20 16 c11 9 29 17 40 17 11 0 31 7 45 15 22 12 23 14 8 20 -11 4 -18 18 -18
32 0 13 -11 35 -25 49 -14 14 -25 36 -25 49 0 25 -33 55 -61 55 -24 0 -28 16
-40 154 -18 207 -43 365 -88 546 -33 131 -38 188 -20 237 9 26 6 38 -16 81
-25 47 -26 59 -26 178 1 70 3 129 4 131 2 2 30 -34 63 -79 58 -81 72 -102 95
-145 7 -13 16 -23 21 -23 11 0 27 -40 45 -115 27 -116 84 -204 149 -231 54
-23 107 -17 235 26 114 38 124 40 177 30 115 -21 186 -6 217 47 10 17 33 38
51 48 65 35 111 120 121 220 11 120 -29 456 -78 647 -10 42 -19 91 -19 110 0
82 -47 171 -101 190 -15 5 -31 18 -34 27 -9 29 1 284 13 312 9 23 17 27 75 32
122 11 182 57 217 165 7 24 17 45 21 48 5 3 16 22 25 42 9 20 29 64 44 97 56
119 71 166 77 244 l6 79 -51 26 c-28 14 -65 26 -82 26 -26 0 -33 6 -45 33 -19
47 -79 91 -113 84 -57 -12 -67 -12 -65 -1 1 7 5 79 9 160 3 82 12 181 20 219
8 39 14 84 14 102 0 17 9 77 20 133 11 56 20 130 20 164 0 55 -3 65 -28 89
-22 21 -38 27 -71 27 -37 0 -48 -5 -76 -36 -40 -43 -47 -78 -50 -249 -2 -116
-14 -213 -45 -370 -5 -27 -15 -89 -21 -138 -11 -83 -21 -112 -32 -84 -2 6 -5
73 -6 147 -1 74 -6 187 -12 250 -6 63 -8 144 -4 180 7 70 -7 175 -30 225 -29
63 -88 98 -141 84 -64 -18 -92 -88 -67 -166 22 -69 32 -332 23 -619 l-5 -141
-38 -17 c-23 -10 -41 -27 -48 -42 -5 -15 -18 -38 -27 -53 -16 -23 -18 -51 -17
-251 0 -214 1 -228 24 -277 21 -47 30 -56 82 -80 47 -23 58 -32 55 -48 -3 -11
-8 -63 -11 -115 -14 -199 -63 -458 -84 -446 -5 3 -6 17 -3 31 4 26 -11 34 -24
13 -4 -6 -12 -41 -18 -76 -12 -71 -38 -103 -57 -69 -6 9 -23 24 -39 32 -19 10
-31 26 -35 47 -4 18 -16 51 -26 73 -20 46 -36 98 -49 170 -6 28 -17 84 -25
125 -8 41 -19 102 -24 135 -12 83 -22 118 -37 130 -17 14 -23 87 -7 92 7 3 21
-10 30 -27 10 -18 27 -43 37 -57 l20 -26 17 22 c13 16 16 28 10 44 -5 12 -9
73 -9 135 -1 63 -4 129 -8 147 -4 25 0 46 19 82 62 120 69 263 28 533 -11 72
-4 125 15 109 8 -6 14 -19 14 -28 1 -23 27 -54 39 -46 20 12 4 108 -29 176 -5
9 -11 38 -15 65 -3 27 -9 65 -11 84 -14 93 -19 182 -12 186 5 3 17 2 28 -1 16
-5 20 -2 20 19 0 14 -4 28 -10 31 -5 3 -10 15 -10 25 0 25 -26 107 -45 142 -8
14 -15 35 -15 46 0 21 -40 96 -105 197 -21 33 -55 97 -76 143 -21 45 -43 82
-49 82 -16 0 -75 99 -95 160 -10 30 -21 64 -26 75 -30 74 -68 279 -69 376 -2
136 -2 143 5 172 5 19 3 33 -8 45 -8 9 -17 37 -21 62 -3 25 -8 62 -12 84 -3
21 -2 41 3 45 5 3 19 21 32 38 22 33 23 33 53 17 42 -22 103 -13 137 20 36 34
48 33 55 -7 7 -38 29 -60 80 -78 32 -12 39 -11 63 8 27 20 35 58 22 103 -3 11
7 14 42 15 86 1 106 51 42 104 -21 17 -43 31 -50 31 -20 0 -16 14 12 40 27 25
41 76 30 109 -11 36 -87 45 -133 15 -13 -9 -25 -14 -26 -12 -1 2 -8 26 -14 53
-7 28 -23 60 -35 72 -29 29 -76 39 -101 20z m68 -43 c25 -25 34 -47 42 -102 4
-29 10 -55 15 -58 5 -3 26 7 46 21 42 28 81 33 89 10 9 -21 -19 -59 -62 -85
-36 -23 -37 -23 -93 -5 -31 9 -62 19 -68 21 -7 2 -13 13 -13 24 0 12 -5 30
-11 42 -12 22 -14 96 -4 127 8 25 37 27 59 5z m-153 -135 c42 -22 100 -90 97
-112 -8 -60 -178 -5 -178 58 0 22 33 65 51 65 6 0 19 -5 30 -11z m-546 -593
c79 -41 30 -66 -131 -66 -111 0 -114 -1 -139 -27 -25 -27 -28 -28 -126 -26
-100 2 -143 -6 -212 -44 -28 -15 -29 -14 -25 8 2 19 12 26 45 34 23 6 45 13
49 18 4 4 18 7 30 7 13 0 25 4 28 9 3 4 25 11 48 15 23 4 47 11 53 16 5 5 26
11 45 13 19 2 3 3 -36 0 -39 -2 -106 -15 -149 -29 -42 -14 -82 -23 -88 -21
-13 4 98 60 154 78 87 28 409 38 454 15z m-84 -338 c12 1 18 -12 22 -46 3 -26
12 -51 21 -58 15 -11 14 -16 -6 -58 -21 -42 -26 -46 -58 -43 -38 2 -40 8 -26
80 6 34 5 39 -13 44 -25 6 -24 5 -9 55 10 33 15 38 32 33 12 -4 28 -7 37 -7z
m-1845 -98 c8 0 14 -9 14 -19 0 -11 5 -23 10 -26 6 -3 10 -17 10 -30 0 -13 4
-34 9 -47 9 -25 30 -98 56 -193 36 -130 59 -207 116 -390 93 -294 101 -319
110 -330 5 -5 9 -17 9 -26 0 -10 6 -30 14 -46 19 -38 56 -164 56 -191 0 -12 4
-30 9 -40 5 -9 17 -53 26 -97 10 -43 24 -85 31 -93 13 -13 19 -32 10 -32 -3 0
-19 20 -37 45 -32 45 -53 56 -62 33 -3 -8 -6 -6 -6 5 -1 9 -4 17 -9 17 -9 0
-32 72 -32 100 0 12 -4 19 -9 16 -5 -3 -11 7 -13 23 -3 20 0 27 8 24 13 -5 54
-118 54 -148 0 -9 4 -14 9 -11 14 9 -4 80 -39 153 -30 61 -34 65 -40 43 -5
-22 -7 -23 -13 -7 -4 10 -7 27 -7 36 0 10 -9 26 -20 36 -11 10 -17 21 -15 25
3 4 -14 52 -36 106 -66 162 -166 468 -225 694 -42 163 -93 314 -111 327 -15
11 -14 13 3 18 10 4 37 15 59 24 22 10 42 15 43 10 2 -5 10 -9 18 -9z m2138
-40 c51 -23 61 -34 81 -89 25 -72 -11 -172 -66 -179 -13 -2 -28 -8 -33 -13
-35 -33 -122 13 -163 88 -42 75 35 200 130 212 4 1 27 -8 51 -19z m-599 -4
c49 -15 95 -50 95 -73 0 -7 5 -13 11 -13 8 0 10 -20 7 -60 -4 -52 -8 -63 -39
-89 -29 -27 -42 -31 -92 -31 -107 0 -157 48 -157 149 0 57 2 64 36 96 40 39
65 43 139 21z m325 -346 c0 -179 2 -209 14 -204 10 4 17 29 22 75 5 55 10 70
25 74 15 5 19 16 19 51 l0 44 27 -17 c21 -14 48 -18 113 -18 72 0 93 4 140 27
30 15 56 25 58 23 6 -6 22 -79 22 -104 0 -48 -104 -120 -198 -136 -68 -11 -78
-64 -14 -80 25 -6 101 -71 102 -86 0 -4 -15 -6 -32 -5 -26 1 -33 -3 -32 -16 1
-13 -5 -18 -21 -18 -18 0 -30 12 -51 50 -15 28 -30 51 -33 51 -24 6 -63 4 -67
-3 -3 -5 4 -20 15 -34 36 -45 30 -56 -54 -111 -22 -14 -61 -49 -88 -77 l-47
-51 -18 24 c-24 34 -92 101 -132 132 -33 25 -34 27 -23 61 14 46 2 68 -27 51
-11 -7 -27 -13 -35 -13 -8 0 -23 -4 -33 -10 -9 -5 -35 -17 -57 -26 -22 -10
-52 -31 -67 -48 -16 -18 -27 -25 -28 -17 0 24 38 77 67 90 15 7 35 17 43 21
19 9 26 40 8 40 -7 0 -26 -7 -42 -15 -35 -18 -46 -19 -46 -2 0 6 -19 35 -42
64 -24 29 -52 68 -62 87 -18 33 -18 41 -6 94 26 111 19 107 98 62 64 -37 75
-40 145 -40 53 0 89 6 121 20 25 10 48 15 51 11 2 -5 8 -93 11 -195 l7 -187
21 21 c20 19 21 34 27 283 3 144 6 263 7 265 1 1 22 2 47 2 l45 0 0 -210z
m1343 -556 c43 -46 51 -94 54 -314 1 -113 4 -223 8 -245 3 -22 9 -100 14 -173
4 -73 10 -135 13 -137 8 -8 66 -13 75 -6 33 24 66 165 93 391 6 52 15 131 20
175 5 44 7 99 3 122 -9 65 12 136 48 157 18 10 37 15 50 11 19 -6 21 -12 15
-64 -4 -31 -9 -82 -13 -113 -3 -32 -9 -55 -13 -53 -13 8 -40 -6 -40 -20 0 -6
8 -19 18 -28 16 -15 17 -26 10 -99 -10 -101 -23 -136 -54 -144 -28 -7 -32 -38
-7 -52 15 -9 16 -16 4 -73 -7 -35 -15 -82 -17 -104 -3 -22 -10 -58 -16 -81
-11 -40 -12 -40 -77 -52 -65 -11 -222 -4 -237 11 -4 4 -2 95 4 202 7 123 7
207 1 227 -5 18 -9 85 -9 150 0 70 -6 143 -15 183 -16 66 -14 89 7 133 15 29
32 28 61 -4z m-1233 -300 c27 -26 50 -51 50 -56 0 -6 -24 -38 -54 -71 -29 -34
-65 -82 -79 -107 -36 -61 -72 -98 -105 -106 -15 -4 -42 -18 -60 -32 -18 -14
-35 -22 -39 -19 -3 4 -15 33 -25 64 -11 32 -32 73 -46 92 -95 121 -136 180
-130 185 2 2 29 15 61 31 31 15 57 32 57 37 0 6 11 7 28 3 69 -17 167 -16 222
4 30 11 58 20 62 20 4 1 30 -20 58 -45z m-1224 -506 c-1 -177 8 -233 37 -222
8 3 20 26 28 51 8 26 19 48 25 50 5 2 16 -29 23 -68 7 -39 19 -92 27 -118 8
-25 20 -62 26 -81 6 -19 19 -43 30 -53 28 -28 40 -67 33 -112 -4 -31 -12 -44
-36 -57 -38 -22 -49 -23 -49 -2 0 19 -59 175 -97 254 -30 65 -133 352 -141
393 -4 24 -1 28 14 25 14 -2 26 11 47 55 15 31 29 57 31 57 1 0 2 -78 2 -172z
m-316 113 c0 -16 78 -257 91 -283 5 -10 9 -24 9 -32 0 -7 7 -27 15 -42 8 -16
15 -39 15 -51 0 -13 4 -23 8 -23 5 0 14 -24 21 -52 8 -29 24 -80 37 -112 13
-33 24 -68 24 -78 0 -10 6 -21 14 -24 8 -3 17 -16 20 -28 7 -29 91 -116 111
-116 23 0 18 -17 -7 -23 -28 -8 -51 6 -83 48 -15 19 -32 32 -40 29 -9 -4 -23
12 -39 45 -14 28 -26 55 -26 61 0 6 -11 27 -24 48 -14 20 -32 61 -41 90 -10
29 -21 55 -26 58 -5 3 -9 16 -9 30 0 14 -7 35 -16 48 -8 13 -16 52 -18 85 -2
34 -7 65 -11 69 -5 4 -5 -1 -2 -10 4 -10 2 -18 -2 -18 -5 0 -12 35 -16 78 -4
42 -13 110 -21 150 -17 86 -17 84 -15 96 2 14 30 -26 31 -43z m1516 -98 c-4
-49 -11 -113 -16 -143 -5 -30 -11 -95 -13 -143 -2 -57 -8 -91 -16 -96 -17 -11
-30 -74 -31 -151 0 -36 -7 -96 -15 -135 -8 -38 -15 -87 -15 -107 0 -20 -5 -48
-11 -62 -9 -19 -9 -29 -1 -39 13 -16 14 -137 1 -137 -12 0 -12 -216 0 -239 12
-22 -2 -47 -20 -35 -8 5 -22 7 -31 6 -20 -4 -24 18 -7 35 12 12 15 215 4 234
-3 5 -20 12 -38 17 -36 9 -54 48 -83 180 -17 77 -29 91 -63 72 -16 -8 -21 -20
-21 -53 0 -46 -46 -167 -64 -167 -33 0 -84 52 -123 128 -15 30 -36 68 -45 85
-25 48 -23 84 6 91 13 3 70 52 126 108 l103 102 -7 -54 c-20 -147 -20 -140 2
-140 25 0 37 34 51 145 13 100 14 156 7 375 -4 105 -3 171 3 165 5 -6 11 -80
14 -165 5 -148 30 -495 41 -590 3 -25 8 -74 10 -110 4 -57 28 -130 43 -130 3
0 2 66 -2 148 -6 138 -5 153 19 247 14 55 29 124 32 153 4 28 11 52 15 52 12
0 11 113 -1 144 -9 24 -8 26 14 20 18 -4 26 -1 30 14 4 11 15 27 26 37 26 24
25 41 -5 69 l-25 24 19 44 c11 27 32 53 52 66 19 12 36 22 37 22 2 0 1 -39 -2
-87z m1738 -133 c10 -22 21 -40 26 -40 5 0 7 -7 4 -15 -5 -12 -9 -11 -23 5
-12 16 -23 19 -48 14 -18 -3 -30 -11 -27 -18 5 -14 52 -36 76 -36 17 0 17 -2
2 -37 -9 -21 -23 -58 -31 -83 -8 -25 -19 -57 -25 -72 l-10 -27 -35 20 c-22 13
-45 18 -60 15 -12 -4 -23 -5 -23 -2 0 2 12 30 27 62 20 44 28 80 31 139 l4 81
37 16 c52 23 55 22 75 -22z m-499 -19 c61 -15 70 -21 73 -42 6 -38 51 -79 87
-79 50 0 74 42 41 70 -12 9 -17 7 -28 -9 -12 -20 -38 -29 -38 -13 1 30 15 51
38 55 15 2 34 6 42 8 12 3 15 -6 13 -51 -1 -43 -6 -58 -23 -72 -27 -22 -85
-23 -120 -3 -14 8 -44 14 -68 15 -39 0 -43 -2 -40 -22 2 -16 11 -24 28 -26 31
-5 90 -48 90 -67 0 -8 9 -30 19 -48 26 -46 51 -148 51 -205 0 -46 0 -47 35
-49 40 -3 50 10 58 75 6 55 13 61 39 34 13 -12 17 -22 10 -22 -24 0 10 -47 44
-60 54 -22 78 -53 70 -93 -6 -32 -54 -87 -76 -87 -5 0 -10 -4 -10 -10 0 -18
-15 -11 -57 25 -49 42 -85 46 -101 10 -6 -14 -15 -25 -20 -25 -5 0 -19 11 -32
25 -26 27 -70 34 -70 11 0 -8 10 -22 22 -30 21 -15 21 -18 15 -205 -4 -105 -3
-192 2 -195 11 -7 43 28 40 46 -1 7 0 58 2 113 l3 100 7 -95 c4 -52 10 -120
13 -150 4 -30 13 -129 21 -220 9 -91 20 -201 25 -245 37 -308 41 -360 34 -458
-3 -56 -13 -114 -20 -128 l-13 -27 -68 35 c-57 29 -74 44 -108 96 -72 112
-101 196 -155 461 -19 93 -3 237 40 351 10 28 26 102 35 165 27 188 47 279 63
292 14 12 14 -12 9 -222 -3 -129 -11 -295 -18 -368 -7 -86 -8 -137 -2 -143 16
-16 31 37 37 128 4 46 11 94 16 109 6 14 10 139 10 283 l0 258 -32 29 c-40 35
-74 54 -99 54 -11 0 -19 5 -19 10 0 6 -6 10 -14 10 -8 0 -24 19 -37 43 -21 39
-23 57 -29 262 -6 210 -5 221 15 250 11 17 21 32 22 34 2 2 14 -1 28 -7 28
-13 43 1 25 23 -15 18 -12 18 75 -4z m642 -66 c37 -18 40 -26 36 -85 -2 -25
-3 -52 -4 -60 0 -8 -3 -27 -6 -42 -4 -24 -7 -27 -25 -17 -13 7 -24 7 -30 1
-11 -11 0 -62 13 -62 13 0 11 -27 -2 -36 -6 -3 -22 5 -35 19 -13 14 -31 30
-39 34 -14 8 -14 13 1 42 11 22 15 46 11 73 -7 50 25 144 49 148 0 0 15 -7 31
-15z m-1758 -295 c22 -18 41 -39 41 -47 0 -7 9 -13 21 -13 24 0 99 -58 99 -76
0 -7 -9 -37 -20 -66 -22 -58 -121 -175 -139 -164 -6 4 -10 24 -9 45 1 27 -6
48 -24 72 -14 19 -31 52 -38 74 -7 22 -19 50 -27 62 -11 17 -13 38 -8 87 7 64
8 65 35 62 15 -2 46 -18 69 -36z m249 -106 c26 -18 29 -67 11 -169 -14 -80
-20 -91 -47 -74 -20 12 -20 13 5 73 14 34 29 69 34 78 13 25 11 60 -3 56 -13
-5 -18 -14 -44 -78 -25 -62 -95 -167 -141 -213 -90 -89 -138 -127 -159 -127
-39 0 -74 -18 -68 -34 4 -11 11 -13 22 -7 10 5 31 11 47 12 l30 4 3 -83 c2
-59 -1 -86 -10 -95 -54 -49 -56 -50 -88 -37 -44 18 -39 80 6 80 26 0 32 18 12
38 -18 18 0 28 24 13 29 -18 50 3 22 24 -19 14 -42 19 -76 16 -15 -2 -18 6
-18 43 0 41 3 46 28 52 59 14 120 56 200 135 114 112 172 209 172 288 0 25 8
26 38 5z m231 -141 c18 -12 29 -13 48 -4 32 15 31 16 38 -23 5 -22 14 -36 26
-39 15 -4 18 -13 16 -53 -1 -33 -6 -48 -14 -46 -7 1 -13 -5 -13 -13 0 -8 -4
-15 -10 -15 -5 0 -10 -13 -10 -30 0 -25 4 -30 25 -30 54 0 57 -84 5 -138 -26
-28 -28 -35 -19 -59 5 -15 9 -61 8 -102 -2 -87 15 -137 56 -169 26 -21 29 -21
40 -5 11 15 15 12 35 -26 24 -48 25 -44 -30 -136 -16 -27 -35 -60 -42 -72 -16
-32 -32 -29 -67 13 -45 55 -73 140 -65 194 6 36 9 40 15 23 10 -28 20 -32 48
-22 18 7 22 14 17 32 -4 12 -8 27 -9 33 -4 16 -28 44 -38 44 -4 0 -4 -13 1
-30 6 -22 5 -30 -5 -30 -17 0 -25 32 -25 100 0 31 -7 63 -15 74 -12 16 -12 25
5 70 11 28 20 71 20 96 1 25 7 63 15 85 21 58 31 210 15 220 -18 11 -25 -7
-39 -98 -17 -116 -41 -230 -51 -242 -4 -5 -10 -26 -13 -45 -10 -63 -20 -95
-37 -120 -9 -14 -18 -45 -19 -69 -1 -24 -6 -52 -11 -62 -6 -10 -10 -27 -10
-39 0 -12 -9 -35 -21 -51 -11 -16 -17 -34 -14 -39 4 -6 -3 -32 -15 -58 -13
-26 -35 -74 -50 -107 -68 -147 -93 -196 -145 -292 -30 -57 -68 -124 -84 -150
-16 -26 -27 -51 -24 -56 9 -14 43 24 110 126 53 79 69 97 84 92 10 -4 19 -2
19 3 0 6 -6 12 -12 15 -10 3 -10 10 2 32 11 21 16 24 18 12 9 -45 102 9 102
58 0 17 5 25 13 22 23 -7 5 -200 -21 -230 -9 -11 -15 -33 -14 -53 2 -19 -4
-49 -11 -67 -8 -18 -34 -79 -57 -136 -38 -94 -97 -222 -136 -293 -8 -14 -14
-32 -14 -40 0 -7 -12 -26 -27 -43 l-26 -29 -19 24 c-11 14 -33 40 -49 59 -31
35 -32 61 -3 61 36 0 136 44 151 66 13 20 13 32 3 72 -14 60 -45 97 -88 105
-34 7 -156 -17 -179 -35 -7 -6 -27 7 -57 37 -25 25 -50 45 -55 45 -13 0 -64
71 -66 90 -2 30 -29 85 -47 98 -24 17 -63 79 -71 112 -3 14 -22 51 -42 84 -42
70 -44 82 -7 63 83 -44 167 -54 250 -32 129 35 197 99 233 217 34 110 21 193
-49 331 -2 4 2 7 9 7 25 0 115 66 168 122 50 53 81 72 81 49 0 -18 37 -18 48
0 14 23 16 89 2 89 -22 0 13 100 51 142 17 20 43 90 45 123 1 11 2 41 3 67 l1
48 48 -6 c26 -4 58 -13 71 -21z m-1559 -150 c6 -21 15 -47 20 -58 4 -11 16
-45 26 -75 9 -30 22 -68 29 -85 7 -16 18 -46 25 -65 6 -19 16 -44 21 -55 5
-11 10 -31 11 -45 3 -21 -2 -26 -24 -28 -31 -4 -34 -13 -16 -42 11 -17 8 -24
-16 -49 -17 -18 -24 -31 -17 -35 6 -4 15 -5 20 -2 5 3 11 -1 15 -9 6 -18 -7
-27 -28 -19 -22 8 -21 -15 2 -33 12 -10 13 -16 5 -19 -7 -3 -9 -12 -6 -20 3
-8 1 -14 -4 -14 -5 0 -13 15 -18 33 -17 54 -44 43 -66 -28 -10 -33 -19 -73
-19 -88 0 -15 -11 -65 -25 -110 -14 -45 -31 -99 -37 -119 -9 -32 -13 -35 -29
-25 -23 14 -24 40 -4 57 8 7 15 25 15 40 0 15 7 41 15 56 8 16 15 44 15 62 0
17 4 32 9 32 10 0 26 39 18 46 -11 11 -34 -9 -30 -25 2 -10 -3 -25 -11 -34 -9
-8 -16 -23 -16 -31 0 -9 -4 -16 -10 -16 -5 0 -12 -16 -16 -35 -7 -38 -73 -115
-99 -115 -18 0 -19 7 -2 25 36 38 46 55 34 55 -20 0 -59 -58 -55 -83 2 -16 11
-23 31 -25 33 -4 35 -14 5 -27 -16 -7 -22 -17 -20 -33 3 -17 -2 -25 -18 -29
-18 -5 -21 -12 -18 -42 3 -40 -12 -48 -27 -13 -21 47 -55 9 -55 -61 0 -26 6
-35 30 -45 40 -18 73 -1 64 33 -7 30 12 34 21 5 12 -37 65 -15 65 27 0 14 7
31 17 38 13 10 14 17 5 44 -10 29 -9 33 13 43 33 15 38 7 26 -39 -15 -57 -29
-140 -36 -211 l-7 -63 -52 3 c-52 3 -54 5 -41 47 5 17 4 22 -6 19 -13 -4 -15
-12 -18 -62 -1 -14 -6 -17 -23 -12 -16 4 -29 -1 -43 -17 -11 -12 -49 -35 -85
-52 -59 -27 -124 -71 -165 -112 -9 -8 -19 -13 -22 -9 -9 8 12 50 61 126 24 36
61 101 83 145 45 91 61 120 86 154 12 16 15 34 12 55 -4 20 1 47 15 79 17 38
27 49 51 54 16 3 29 12 29 19 0 8 5 14 10 14 6 0 10 7 10 15 0 19 -14 19 -30
0 -20 -24 -29 -4 -20 45 25 141 55 286 75 365 13 50 29 122 35 160 14 80 26
108 42 99 7 -5 8 -2 3 6 -5 8 -7 39 -6 71 1 32 -2 60 -8 64 -14 8 -14 45 -1
45 6 0 10 -7 10 -15 0 -8 9 -19 20 -25 26 -14 54 -76 55 -121 0 -21 5 -37 10
-36 6 1 14 -22 19 -50 5 -29 13 -53 18 -53 4 0 8 -34 8 -75 0 -61 3 -75 15
-75 9 0 20 12 26 28 20 51 10 252 -12 252 -5 0 -9 9 -9 20 0 37 -75 140 -103
140 -28 0 -17 34 13 38 52 6 70 13 70 27 0 30 29 14 40 -22z m1300 22 c0 -16
-4 -26 -37 -90 -15 -29 -29 -41 -49 -45 -15 -3 -29 -11 -32 -18 -2 -8 2 -10
14 -5 19 7 19 6 -38 -78 -37 -54 -85 -106 -91 -98 -2 2 -1 38 3 79 l5 75 89
90 c59 60 87 82 83 68 -4 -16 -1 -23 10 -23 12 0 14 7 10 30 -6 25 -3 30 13
30 11 0 20 -7 20 -15z m-945 -102 c20 -24 131 -100 155 -106 49 -13 55 -23 60
-99 4 -56 9 -73 20 -73 22 0 43 72 35 123 -5 36 -13 47 -45 67 -22 14 -43 25
-47 25 -13 0 -115 71 -110 76 3 3 31 -10 63 -27 48 -27 74 -34 139 -38 l80 -6
3 -60 c2 -40 -1 -63 -10 -70 -7 -5 -18 -24 -24 -42 -10 -25 -9 -33 2 -37 7 -3
16 -1 19 4 11 17 25 11 25 -11 0 -14 -6 -19 -18 -17 -9 1 -31 -7 -49 -20 -17
-12 -34 -22 -38 -22 -4 0 -19 -9 -34 -20 -26 -18 -29 -18 -52 -3 -83 56 -241
250 -254 313 -6 33 -4 31 34 -26 40 -60 71 -87 71 -61 0 7 -11 29 -25 49 -14
20 -25 43 -25 50 0 7 -7 22 -15 32 -8 11 -15 26 -15 34 0 12 5 11 22 -4 13
-10 27 -24 33 -31z m93 -398 c23 -15 42 -31 42 -34 0 -4 -7 -17 -16 -30 -15
-21 -22 -41 -42 -124 -6 -26 -11 -20 -45 65 -50 120 -54 138 -33 138 9 0 16 7
16 15 0 17 -16 20 -25 5 -4 -6 -10 -8 -15 -5 -10 6 -60 109 -60 123 0 6 31
-20 68 -58 38 -37 87 -80 110 -95z m445 34 c52 -43 103 -125 117 -190 9 -44 9
-64 -4 -109 -8 -30 -15 -50 -16 -45 -1 6 -3 39 -5 75 -8 133 -13 149 -65 200
-26 26 -61 51 -76 54 -45 12 -54 -11 -54 -136 l0 -108 46 -49 c25 -27 64 -57
85 -67 36 -18 51 -34 30 -34 -5 0 -13 -10 -17 -22 -6 -21 -8 -21 -13 -5 -9 25
-112 127 -128 127 -10 0 -13 -21 -13 -82 0 -79 -11 -121 -26 -105 -4 4 -7 48
-5 97 2 71 -1 90 -12 90 -18 0 -137 -108 -137 -125 0 -7 21 -27 48 -44 52 -34
52 -39 1 -16 -135 59 -176 256 -84 401 56 87 118 121 225 123 59 1 69 -2 103
-30z m-695 -94 c18 -48 22 -70 14 -73 -19 -6 -14 -18 13 -30 17 -8 35 -33 54
-74 15 -35 48 -103 72 -153 24 -49 46 -93 47 -97 2 -5 -3 -8 -12 -8 -20 0 -20
2 6 -72 31 -90 65 -147 117 -195 l45 -42 -27 -10 c-41 -16 -158 -13 -180 4
-11 8 -21 32 -24 57 -4 24 -12 52 -19 63 -14 22 -42 124 -55 195 -4 25 -19 86
-32 135 -13 50 -30 117 -36 150 -7 33 -21 85 -32 116 -22 66 -23 81 -7 97 20
20 29 10 56 -63z m-68 -220 c37 -184 111 -446 139 -494 17 -29 31 -56 31 -61
0 -5 -12 -13 -27 -16 -37 -10 -79 -33 -144 -83 -51 -39 -88 -54 -74 -30 4 6 9
90 12 187 3 97 9 182 12 187 4 6 1 84 -7 174 -13 144 -13 165 0 175 8 6 18 20
22 31 10 27 20 8 36 -70z m1715 6 c3 -11 1 -28 -4 -38 -37 -67 -68 -172 -77
-259 -7 -70 -18 -82 -28 -31 -3 17 -8 43 -11 57 -19 96 -18 103 24 166 23 34
41 67 41 73 0 6 4 11 9 11 5 0 13 9 16 20 8 25 22 26 30 1z m-350 -727 c-8
-77 -44 -185 -71 -215 -20 -22 -55 -79 -99 -162 -14 -27 -25 -65 -25 -86 0
-20 -7 -47 -16 -59 -9 -13 -13 -30 -10 -39 6 -14 4 -14 -11 -2 -40 31 -61 57
-91 107 -18 29 -32 54 -32 56 0 3 18 23 40 46 26 27 37 46 33 58 -3 9 -3 14 1
11 4 -4 17 3 30 16 12 12 27 24 33 26 5 2 31 36 58 74 26 39 53 77 60 85 28
33 75 131 75 155 0 24 1 25 16 10 13 -13 15 -28 9 -81z m-1234 47 c-29 -29
-40 -49 -45 -84 -4 -26 -3 -54 3 -65 12 -22 -3 -42 -31 -42 -44 0 -148 -71
-148 -101 0 -11 8 -36 17 -57 9 -20 17 -41 18 -47 1 -5 5 -27 10 -48 4 -21 5
-40 2 -43 -7 -8 -109 48 -125 68 -13 18 -86 43 -110 39 -28 -5 -38 18 -35 81
2 75 14 147 28 169 6 9 26 19 47 22 28 4 40 1 54 -14 22 -25 25 -24 120 15 58
24 92 45 118 73 32 36 86 72 109 73 4 0 -10 -17 -32 -39z m197 8 c90 2 272
-20 272 -32 0 -6 -12 -26 -26 -44 -41 -54 -16 -63 37 -14 24 22 49 41 55 41 6
0 17 -11 24 -25 8 -16 22 -25 37 -25 38 0 26 -27 -22 -50 -25 -12 -48 -26 -51
-31 -4 -6 -11 -6 -19 1 -30 25 -91 50 -121 50 -17 0 -49 -7 -70 -16 -26 -11
-73 -16 -156 -17 -65 -1 -118 -5 -118 -9 0 -30 159 -73 233 -63 38 6 47 4 47
-8 0 -9 -4 -19 -10 -22 -13 -8 -13 -52 0 -60 5 -3 19 15 31 40 22 46 22 46 63
40 23 -4 70 -22 104 -41 35 -19 72 -34 82 -34 35 0 30 -29 -10 -67 -22 -20
-40 -42 -40 -50 0 -15 -21 -17 -35 -4 -6 4 -35 16 -65 27 -30 10 -59 22 -64
26 -6 4 -17 8 -25 8 -9 0 -28 6 -42 14 -20 10 -66 13 -175 12 -127 -1 -149 -3
-152 -17 -3 -16 39 -43 68 -44 9 0 15 -10 15 -27 1 -16 6 -33 13 -40 19 -19
15 -25 -22 -32 -35 -7 -50 -24 -37 -44 3 -6 38 -16 76 -22 78 -12 119 -35 123
-71 3 -24 3 -24 -15 -4 -10 11 -34 27 -53 36 -36 17 -146 39 -195 39 -41 0
-65 26 -65 71 0 21 -5 41 -11 44 -6 4 -8 24 -5 50 6 38 3 44 -25 68 -18 15
-29 33 -27 43 3 18 92 73 119 74 8 0 26 11 39 25 18 20 22 31 17 61 -4 25 -1
49 10 71 19 41 80 85 106 77 10 -3 48 -5 85 -5z m-898 -84 c-7 -8 -18 -15 -24
-15 -22 0 -196 -181 -196 -204 0 -7 -11 -39 -24 -72 -13 -32 -27 -80 -30 -106
-8 -51 -26 -66 -26 -22 0 14 -7 41 -16 60 -15 32 -15 37 3 79 22 51 172 220
205 230 11 4 41 23 66 41 44 34 67 39 42 9z m165 -25 c3 -5 12 -7 20 -3 8 3
15 0 15 -6 0 -11 -13 -15 -39 -11 -8 1 -25 -11 -38 -27 -20 -22 -24 -35 -19
-63 3 -22 -1 -44 -10 -60 -15 -24 -15 -21 0 26 10 33 -21 25 -38 -10 -14 -29
-14 -32 5 -40 16 -8 19 -16 14 -35 -3 -14 -10 -47 -15 -73 -5 -26 -13 -56 -19
-67 -6 -11 -11 -72 -11 -135 0 -95 -3 -116 -15 -116 -22 0 -35 31 -21 52 9 15
8 21 -4 28 -24 15 -42 -9 -36 -46 5 -23 1 -38 -14 -55 l-20 -24 3 120 c3 109
14 168 38 217 5 10 9 23 9 28 0 17 38 96 65 137 14 20 28 48 32 62 3 13 17 41
30 60 33 48 55 62 68 41z m-149 -52 c-20 -23 -36 -45 -36 -50 0 -4 -11 -31
-24 -60 -43 -94 -73 -181 -92 -265 -13 -60 -23 -84 -35 -88 -10 -4 -21 -16
-25 -28 l-7 -22 -8 23 c-5 12 -6 28 -3 35 2 7 8 62 12 123 8 100 11 115 43
167 18 31 41 59 50 62 9 3 21 17 28 31 8 18 17 24 27 20 11 -4 15 -2 11 8 -4
11 -1 13 10 9 10 -4 14 -2 11 8 -2 7 9 26 26 41 46 42 52 34 12 -14z m1070
-293 c10 -8 27 -15 36 -15 10 0 42 -11 71 -24 77 -34 145 -47 191 -36 39 9 39
9 106 -63 37 -40 85 -93 107 -118 67 -78 168 -164 261 -222 49 -30 97 -57 106
-58 24 -6 20 -23 -8 -30 -33 -9 -191 -110 -237 -152 -60 -55 57 -18 177 55 34
21 94 52 134 69 63 26 77 29 99 19 l26 -12 -28 -24 c-16 -13 -41 -24 -56 -24
-39 0 -154 -45 -222 -86 -31 -19 -62 -34 -68 -34 -10 0 -51 -35 -51 -44 0 -3
-12 -17 -27 -33 -54 -56 -100 -109 -117 -136 -10 -15 -22 -24 -27 -21 -15 9
-10 23 14 46 35 36 67 87 57 93 -5 3 -5 18 0 34 8 29 8 29 -27 24 -26 -4 -34
-3 -29 5 4 7 27 12 50 12 54 0 81 24 51 46 -21 16 -53 18 -74 5 -8 -5 -20 -7
-28 -4 -19 8 1 29 49 54 28 14 38 26 38 44 0 29 -21 25 -61 -12 -17 -16 -29
-21 -33 -14 -4 6 -3 11 2 11 10 0 24 41 17 49 -3 2 -16 -6 -30 -19 -19 -18
-27 -20 -38 -11 -15 12 -47 5 -47 -10 0 -5 -7 -9 -15 -9 -9 0 -15 9 -15 24 0
26 -27 43 -44 26 -5 -5 -18 -10 -28 -10 -25 0 -22 -20 8 -54 19 -21 28 -26 37
-17 34 34 108 -17 112 -77 2 -27 -2 -35 -20 -42 -13 -5 -26 -13 -29 -18 -3 -5
-19 -7 -35 -4 -37 5 -90 67 -72 85 19 19 12 37 -13 37 -27 0 -40 -22 -23 -39
12 -12 -17 -51 -39 -51 -10 0 -12 -9 -7 -30 4 -25 2 -30 -13 -30 -23 0 -94 46
-94 61 0 6 6 9 13 7 6 -3 19 3 29 13 15 16 15 19 -6 38 -12 12 -27 21 -34 21
-16 0 -26 64 -15 97 7 21 17 29 39 31 36 5 54 19 54 43 0 22 38 26 71 9 13 -8
19 -7 19 0 0 6 21 20 47 32 50 22 153 115 153 139 0 8 9 28 20 44 11 17 20 33
20 38 0 22 -36 -2 -109 -73 -79 -77 -101 -89 -130 -71 -22 14 -2 31 38 31 36
0 52 13 85 67 9 16 -25 5 -36 -11 -4 -7 -14 -6 -30 1 -16 7 -28 7 -40 -1 -9
-5 -20 -7 -24 -3 -15 15 17 31 64 31 l48 1 -9 47 c-9 45 -12 48 -56 64 -25 9
-70 27 -99 40 -30 14 -72 24 -97 24 -36 0 -45 4 -51 22 -3 12 -27 43 -52 70
-43 46 -47 64 -6 33z m759 -282 c3 -12 18 -28 34 -36 27 -14 30 -13 40 10 6
13 15 22 20 18 5 -3 12 3 14 12 3 12 5 8 6 -9 1 -37 21 -47 21 -11 0 18 3 24
8 15 5 -7 16 -10 25 -6 10 3 19 0 22 -7 7 -20 23 -163 19 -168 -2 -2 -15 8
-28 22 -14 15 -33 27 -42 27 -39 0 -225 161 -193 168 9 1 22 15 30 29 l14 27
3 -35 c1 -19 5 -44 7 -56z m-1854 -213 c5 0 9 -12 9 -26 0 -19 4 -25 15 -20
11 4 15 -2 15 -22 0 -17 13 -41 35 -64 36 -40 53 -46 73 -26 9 9 7 14 -6 24
-35 26 -1 25 47 -1 41 -23 58 -26 98 -22 26 3 56 8 66 12 30 12 19 -14 -15
-35 -18 -10 -38 -23 -43 -28 -27 -23 -168 -36 -222 -20 -27 8 -37 21 -71 91
-45 94 -69 176 -57 203 5 13 9 15 12 7 7 -19 23 -16 25 5 1 9 3 -4 5 -30 2
-27 8 -48 14 -48z m-134 28 c12 -24 29 -65 37 -91 9 -26 23 -59 32 -73 21 -31
13 -39 -33 -35 -40 3 -52 12 -82 62 -25 40 -27 67 -6 75 11 4 15 21 15 55 0
27 3 49 8 49 4 0 17 -19 29 -42z m867 -23 c15 -14 40 -31 55 -39 15 -8 49 -38
75 -67 26 -29 67 -65 90 -80 38 -24 123 -94 188 -155 16 -14 33 -22 38 -19 11
7 101 -32 112 -48 3 -6 4 -15 2 -22 -3 -6 2 -17 10 -24 12 -10 19 -8 35 8 26
26 68 28 75 3 4 -10 20 -31 36 -47 l30 -29 23 22 c27 26 47 28 47 7 0 -8 -7
-15 -15 -15 -18 0 -19 -11 -2 -29 8 -9 8 -12 0 -7 -7 4 -14 -2 -18 -14 -4 -11
-11 -18 -16 -14 -5 3 -18 -5 -28 -18 -16 -19 -29 -23 -75 -24 -63 0 -86 -13
-61 -34 15 -13 21 -60 8 -60 -5 0 -18 -3 -30 -6 -29 -8 -42 30 -18 56 14 16
15 24 5 54 -6 19 -23 46 -38 58 -15 13 -29 32 -30 43 -4 24 -30 55 -46 55 -6
0 -27 14 -46 31 -19 17 -55 48 -79 69 -39 35 -43 41 -30 56 12 15 11 16 -18
10 -26 -6 -34 -3 -45 13 -7 12 -16 21 -20 21 -14 0 -184 119 -209 146 -15 16
-30 39 -34 52 -3 12 -15 27 -26 32 -10 6 -19 17 -19 25 0 24 44 18 74 -10z
m1366 -215 c0 -5 -4 -10 -9 -10 -5 0 -25 -16 -44 -35 -19 -19 -29 -35 -21 -35
21 0 7 -22 -29 -48 -17 -12 -47 -34 -66 -47 -36 -27 -51 -31 -51 -15 0 6 7 10
16 10 20 0 60 43 45 48 -14 5 -120 -70 -121 -85 0 -7 -4 -13 -10 -13 -5 0 -10
-9 -10 -21 0 -11 -11 -35 -25 -53 -31 -41 -33 -86 -5 -93 27 -7 25 -14 -10
-48 -16 -16 -30 -34 -30 -41 0 -6 -7 -18 -16 -25 -9 -7 -34 -40 -55 -74 -21
-33 -43 -65 -49 -72 -5 -7 -10 -17 -10 -24 0 -19 -31 -36 -56 -31 -19 3 -22 8
-14 22 5 10 22 21 37 25 27 7 27 8 7 17 -16 7 -31 5 -60 -11 -33 -18 -39 -19
-42 -6 -2 8 -14 15 -28 15 -15 0 -24 6 -24 15 0 9 -11 21 -25 27 -27 12 -34
48 -10 48 8 0 15 8 15 18 0 15 63 92 76 92 2 0 2 -11 -2 -25 -5 -20 -3 -25 14
-25 24 0 80 66 145 171 87 142 250 282 387 332 26 9 80 7 80 -3z m-1766 -135
c6 -17 56 -21 56 -5 0 6 9 10 20 10 11 0 20 -4 20 -9 0 -11 -25 -21 -52 -21
-10 0 -26 -7 -34 -15 -14 -13 -14 -16 0 -21 31 -12 16 -32 -28 -38 -66 -10
-126 10 -126 43 0 6 -4 11 -10 11 -5 0 -10 -4 -10 -10 0 -5 -9 -10 -20 -10
-11 0 -20 -7 -20 -15 0 -18 12 -19 28 -3 7 7 12 9 12 4 0 -17 -66 -61 -94 -62
-22 -1 -39 -12 -63 -40 -18 -21 -33 -34 -33 -27 0 6 7 18 15 27 8 8 15 19 15
24 0 6 4 12 9 14 5 2 31 23 58 48 85 81 240 138 257 95z m273 -159 c34 -33 60
-63 57 -68 -3 -4 19 -32 49 -61 30 -28 65 -68 78 -87 13 -19 29 -41 36 -48 26
-27 35 -52 20 -58 -9 -3 -38 18 -74 54 -33 33 -91 81 -129 106 -217 148 -264
184 -264 198 0 6 8 4 18 -5 25 -22 34 -21 55 8 17 24 17 25 -2 25 -26 0 -19
22 12 36 25 12 35 5 144 -100z m2043 -10 c135 -23 141 -28 65 -45 -35 -8 -29
-9 48 -10 57 -1 86 3 82 9 -7 11 109 14 191 4 60 -7 67 -17 113 -142 l30 -80
-9 -154 c-11 -183 -27 -344 -45 -453 -8 -44 -19 -141 -25 -215 -6 -74 -18
-191 -25 -260 -8 -69 -17 -154 -21 -190 -3 -36 -12 -114 -20 -175 -35 -258
-39 -309 -60 -773 -7 -151 -8 -154 -31 -163 -14 -5 -29 -7 -34 -3 -12 7 -11
103 2 229 5 55 16 181 25 280 8 99 17 196 20 215 15 99 53 383 59 435 3 33 10
85 15 115 16 96 49 350 65 505 8 83 20 182 25 220 17 127 23 262 12 269 -30
18 -73 -100 -92 -253 -6 -46 -13 -88 -15 -92 -3 -4 -9 -38 -15 -75 -33 -220
-42 -291 -51 -403 -5 -68 -18 -169 -28 -225 -33 -179 -42 -274 -72 -806 -6
-107 -11 -244 -11 -304 0 -59 -2 -115 -5 -122 -3 -8 -16 -14 -29 -14 l-24 0 0
137 c0 75 4 162 10 192 5 31 14 162 21 291 12 274 23 411 37 495 20 117 40
262 52 370 6 61 20 163 31 228 10 65 19 125 19 133 0 22 -17 16 -23 -8 -3 -13
-13 -52 -22 -88 -29 -115 -55 -254 -55 -294 0 -22 -4 -65 -10 -95 -5 -31 -16
-117 -26 -191 -9 -74 -20 -151 -24 -170 -5 -19 -14 -84 -20 -145 -36 -371 -98
-822 -120 -880 -6 -15 -17 -25 -30 -25 -16 0 -20 7 -20 30 0 30 23 166 40 230
9 36 29 174 50 335 6 50 15 115 20 145 5 30 12 93 15 140 3 47 10 108 15 135
4 28 16 102 25 165 9 63 21 146 27 183 8 49 8 71 0 79 -8 8 -15 -5 -27 -48
-10 -33 -30 -99 -47 -149 -30 -92 -51 -183 -68 -290 -6 -33 -16 -96 -24 -140
-7 -44 -21 -159 -30 -255 -25 -254 -33 -301 -72 -377 -41 -83 -96 -179 -110
-193 -12 -12 -171 3 -209 20 -34 14 -118 40 -132 40 -7 0 -13 -4 -13 -10 0
-11 48 -33 110 -50 82 -22 88 -26 83 -54 -5 -23 -2 -26 36 -32 23 -4 41 -12
41 -18 0 -6 -18 -22 -40 -36 -22 -13 -42 -30 -44 -37 -3 -7 -12 -13 -19 -13
-8 0 -23 -11 -33 -25 -19 -25 -58 -34 -69 -15 -3 6 -13 10 -21 10 -19 0 -89
32 -129 60 -16 11 -36 20 -43 20 -7 0 -21 7 -30 16 -13 13 -14 21 -4 46 8 21
8 36 0 54 -10 21 -7 28 28 61 82 79 144 189 144 257 0 19 11 49 26 72 15 21
38 77 51 124 33 117 104 401 144 570 11 47 24 101 29 120 10 41 37 184 69 365
28 162 59 489 55 584 -4 91 -13 111 -52 111 -14 0 -52 5 -84 12 -50 10 -58 15
-56 33 2 14 12 21 33 23 39 5 135 -17 158 -36 16 -14 17 -11 17 44 -1 101 -40
130 -158 115 -130 -16 -272 -23 -272 -13 0 21 30 30 135 41 130 14 145 18 145
37 0 8 5 14 10 14 6 0 10 6 10 14 0 8 6 16 13 19 6 2 10 7 7 10 -8 8 -208 -19
-244 -33 -33 -12 -45 -6 -31 16 20 31 103 49 375 84 115 14 140 20 140 31 0
17 -182 9 -280 -12 -128 -28 -190 -34 -190 -20 0 6 12 14 28 17 15 4 52 13 82
21 91 25 140 33 250 41 l105 8 -97 18 c-54 10 -98 22 -98 27 0 16 111 9 250
-15z m-2425 -125 c3 -5 1 -12 -5 -16 -18 -11 -11 -64 10 -75 26 -14 39 -6 56
36 8 19 21 34 30 34 13 0 15 -7 9 -37 -4 -21 -8 -72 -9 -113 -2 -41 -9 -95
-16 -120 -6 -25 -14 -64 -17 -87 -5 -41 -4 -43 21 -43 46 0 100 114 127 264 8
47 23 75 34 65 7 -8 -10 -100 -46 -239 -5 -19 -14 -87 -19 -150 -6 -63 -15
-173 -22 -245 -15 -171 -15 -246 -1 -515 7 -124 17 -313 23 -420 24 -467 53
-820 76 -919 8 -35 21 -112 29 -170 8 -58 17 -116 21 -128 5 -18 1 -25 -17
-32 -21 -7 -26 -4 -36 20 -6 15 -16 72 -22 126 -6 54 -16 121 -22 148 -25 125
-64 574 -74 860 -7 207 -17 335 -26 335 -33 0 -17 -758 19 -920 38 -168 56
-315 48 -381 -4 -30 -9 -93 -13 -141 -6 -100 6 -89 -145 -124 -63 -14 -106
-16 -223 -12 -120 5 -145 4 -145 -8 0 -11 16 -14 64 -14 37 0 68 -5 72 -11 4
-8 27 -9 68 -5 33 4 90 9 126 12 36 2 88 11 117 20 29 9 58 14 65 11 14 -5 54
-144 44 -154 -17 -17 -57 38 -70 100 -4 15 -10 27 -14 26 -4 0 -20 -28 -37
-62 -23 -48 -36 -63 -55 -65 -33 -5 -50 -20 -50 -43 0 -12 -11 -23 -26 -29
-32 -13 -358 -7 -376 6 -7 6 -38 18 -68 29 -30 10 -66 29 -80 42 -14 13 -32
23 -41 23 -9 0 -19 7 -23 15 -8 22 -21 19 -62 -17 -34 -30 -37 -31 -62 -16
-36 22 -38 34 -8 61 40 37 34 49 -22 41 l-49 -6 1 36 c1 20 4 36 7 36 3 0 24
19 47 42 l41 41 35 -26 c19 -15 39 -27 45 -27 13 0 84 -33 91 -42 9 -12 53
-14 57 -2 2 6 -25 23 -61 38 -35 15 -72 36 -82 47 -9 10 -30 19 -46 19 -37 0
-35 9 7 50 19 19 35 42 35 52 0 10 16 48 35 84 19 36 46 103 59 148 13 44 34
113 46 151 33 106 68 276 85 415 9 69 20 145 26 170 25 115 41 362 48 780 8
416 16 547 42 760 13 101 35 170 55 170 15 0 14 -14 -6 -85 -5 -16 -11 -73
-15 -125 l-6 -95 31 63 c22 47 30 77 30 120 0 77 16 56 33 -43 18 -109 37
-111 37 -3 0 70 4 92 28 140 21 44 32 57 49 58 16 0 29 12 43 40 20 40 33 49
45 31z m327 -224 c-14 -19 -39 -96 -57 -177 -9 -41 -21 -96 -28 -123 -8 -35
-8 -69 1 -135 18 -125 32 -455 33 -767 0 -148 5 -322 10 -385 5 -63 13 -182
18 -265 13 -210 40 -377 86 -545 63 -226 64 -240 20 -240 -19 0 -25 5 -25 21
0 12 -11 60 -25 108 -58 196 -70 250 -89 406 -31 246 -46 493 -46 740 0 83 -6
353 -12 601 l-11 451 33 129 c31 120 57 189 84 223 9 12 12 10 14 -8 2 -12 -1
-27 -6 -34z m68 -83 c-33 -86 -39 -232 -36 -866 2 -345 7 -632 11 -638 15 -25
52 -511 41 -554 -4 -16 -9 -26 -12 -23 -9 8 -31 249 -48 512 -34 525 -47 1257
-25 1426 6 46 20 110 31 142 18 50 23 56 35 44 11 -11 11 -20 3 -43z m-846
-41 c3 -21 6 -68 6 -105 0 -58 -3 -69 -22 -84 -15 -10 -17 -14 -6 -11 11 4 19
0 22 -11 9 -31 3 -452 -7 -452 -5 0 -4 -7 3 -15 8 -9 10 -42 8 -97 -3 -75 -6
-83 -23 -81 -48 5 -176 24 -242 36 -60 11 -73 11 -77 0 -8 -20 -26 -15 -26 7
0 37 -23 68 -64 86 -64 29 -237 124 -332 183 -28 17 -67 36 -85 42 -28 10 -54
26 -107 65 -14 10 23 56 106 130 77 69 118 96 207 139 129 62 258 116 335 140
47 15 251 60 286 64 6 0 14 -16 18 -36z m3610 -222 c63 -37 120 -94 140 -143
14 -34 14 -38 -4 -61 -41 -52 -90 -34 -90 34 0 42 -31 36 -46 -9 -11 -34 -24
-33 -24 2 0 33 -34 156 -43 156 -4 0 -5 5 -2 10 4 6 11 8 16 5 5 -4 9 -2 9 4
0 5 -8 15 -17 20 -12 7 -14 10 -4 11 7 0 37 -13 65 -29z m-1066 -316 c-11
-191 -59 -502 -99 -634 -6 -20 -9 -50 -6 -66 4 -27 4 -26 6 8 0 20 6 37 11 37
6 0 10 10 10 22 0 21 25 116 41 153 5 11 10 34 13 50 2 17 2 -1 0 -40 -3 -38
-9 -85 -14 -105 -21 -83 -72 -295 -99 -420 -17 -74 -37 -155 -45 -180 -7 -25
-20 -65 -27 -90 -7 -25 -28 -62 -46 -83 -29 -33 -33 -44 -33 -96 0 -58 0 -59
-56 -112 -31 -30 -69 -66 -84 -81 -16 -16 -32 -28 -37 -28 -4 0 -28 -18 -53
-40 -25 -22 -52 -40 -61 -40 -10 0 -34 21 -55 46 -22 26 -45 53 -53 61 -18 18
-13 22 83 72 44 23 85 46 92 52 10 8 21 5 44 -11 22 -16 28 -17 24 -6 -3 9
-10 16 -15 16 -5 0 -9 11 -9 25 0 14 4 25 9 25 11 0 91 153 120 230 12 30 26
64 30 75 34 76 115 340 139 450 54 254 85 411 93 478 4 37 11 77 14 88 4 11
11 70 15 132 27 342 68 352 48 12z m-248 160 c0 -10 10 -15 28 -15 15 0 33 -5
39 -11 8 -8 21 -8 48 1 21 7 41 8 46 3 8 -8 -12 -166 -32 -238 -6 -22 -13 -55
-16 -73 -7 -42 -33 -53 -135 -56 -79 -2 -113 -15 -91 -37 7 -7 36 -7 96 2 112
15 117 13 103 -45 -10 -45 -11 -46 -61 -55 -27 -6 -97 -15 -155 -21 -58 -7
-108 -14 -112 -16 -5 -3 -8 -15 -8 -27 -1 -12 -7 -33 -14 -46 l-13 -24 -11 31
c-7 20 -7 34 -1 37 5 4 9 15 9 27 0 19 -4 20 -102 14 -57 -3 -150 -13 -208
-22 -115 -18 -194 -20 -231 -5 -17 7 -19 10 -7 10 10 1 40 15 66 31 45 28 57
30 141 30 66 0 102 5 129 17 l37 17 -80 6 c-68 4 -75 6 -47 13 18 5 37 18 43
29 10 18 8 19 -22 16 -18 -2 -34 2 -36 7 -4 13 44 31 107 40 25 4 52 11 60 15
13 7 13 10 -3 15 -9 4 -28 4 -42 1 -14 -4 -25 -3 -25 2 0 12 41 30 84 36 20 3
52 8 71 11 22 4 35 12 35 21 0 8 16 22 35 31 30 14 32 18 18 28 -14 11 -13 13
9 17 13 2 33 2 43 -2 10 -3 41 0 69 7 28 7 60 13 73 13 12 0 25 5 29 11 6 11
-48 9 -143 -7 -44 -7 -104 3 -87 14 5 4 17 19 27 34 10 16 33 32 57 39 52 16
52 33 0 26 -22 -3 -40 -2 -40 2 0 13 46 33 81 34 19 1 40 8 47 15 20 18 92 16
92 -3z m55 -607 c-13 -99 -38 -236 -51 -273 -34 -104 -53 -150 -64 -153 -9 -3
-11 8 -8 37 2 25 0 40 -7 38 -5 -3 -9 -18 -8 -35 2 -17 -2 -34 -7 -37 -6 -3
-10 -21 -10 -38 1 -29 2 -30 14 -14 7 9 15 17 18 17 21 0 -73 -285 -102 -310
-10 -9 -20 -36 -24 -66 -8 -61 -26 -101 -63 -138 -25 -25 -28 -26 -33 -10 -4
10 -5 30 -2 44 3 14 6 72 8 130 1 58 6 166 10 240 4 74 6 146 6 160 -1 14 1
41 5 60 l7 35 6 -35 c7 -32 7 -31 9 16 1 37 -4 55 -15 65 -21 17 -15 140 9
188 9 18 19 48 23 67 5 27 11 34 30 34 12 0 26 5 29 10 4 6 53 10 116 10 l109
0 -5 -42z m-391 6 c3 -9 7 -55 7 -102 1 -48 3 -79 6 -69 6 24 43 22 43 -2 0
-11 -4 -23 -10 -26 -6 -4 -10 -86 -10 -212 0 -197 -5 -239 -34 -301 l-10 -24
-11 30 c-14 42 -25 50 -40 29 -11 -15 -13 -10 -17 39 -3 37 -11 61 -21 69 -10
7 -17 22 -17 33 0 11 -4 24 -10 27 -9 6 -11 -1 -14 -47 -1 -10 -5 -18 -11 -18
-11 -1 -37 89 -30 107 2 7 0 15 -5 18 -16 10 -12 35 5 35 17 0 18 2 9 24 -5
14 -9 14 -33 -3 -14 -10 -31 -16 -37 -14 -17 6 -54 -46 -54 -76 0 -14 -4 -32
-9 -40 -17 -27 -28 0 -30 73 -1 65 2 79 26 120 15 25 33 46 39 46 12 0 24 23
24 43 -1 7 -11 0 -23 -14 -23 -27 -53 -44 -74 -40 -9 1 -13 -17 -13 -62 0 -45
-5 -68 -15 -77 -8 -7 -15 -28 -15 -47 0 -27 -4 -34 -17 -31 -15 3 -18 15 -18
83 0 44 -6 96 -12 115 -7 19 -12 71 -12 115 1 44 0 98 -2 119 l-3 40 114 17
c63 9 142 21 175 27 100 15 152 14 159 -4z m-509 -54 c-4 -6 -2 -17 4 -24 12
-15 16 -302 5 -361 -6 -36 -39 -65 -54 -48 -10 10 -21 193 -20 313 1 58 6 90
16 101 8 9 11 19 7 22 -3 4 6 7 21 7 16 0 25 -4 21 -10z m617 -1356 c17 -9 52
-31 78 -50 93 -67 223 -107 330 -101 25 1 55 -2 68 -6 20 -8 22 -5 23 25 0 30
1 31 9 10 5 -12 18 -25 27 -29 26 -10 55 -50 75 -103 19 -48 24 -160 8 -160
-5 0 -10 -6 -10 -13 0 -7 -6 -21 -12 -30 -12 -15 -21 -9 -83 49 -38 36 -83 73
-100 81 -16 9 -41 24 -54 34 -29 23 -35 23 -56 3 -15 -16 -15 -18 7 -38 13
-12 39 -32 58 -44 l35 -23 -130 6 c-187 9 -250 21 -313 63 -60 40 -82 80 -82
152 0 47 33 129 70 173 18 21 14 21 52 1z m1336 -300 c13 -13 20 -28 16 -38
-7 -17 -7 -17 76 -36 30 -7 60 -17 67 -22 6 -5 24 -14 40 -19 22 -7 18 -8 -20
-3 -26 3 -59 12 -75 19 -33 18 -159 9 -180 -12 -27 -26 -2 -36 77 -29 58 5 84
3 104 -7 18 -10 23 -16 15 -20 -8 -2 -22 -21 -33 -41 -23 -43 -15 -55 44 -63
39 -5 44 -3 85 39 35 37 48 45 70 41 14 -3 26 -8 26 -11 0 -3 -16 -33 -35 -68
-40 -72 -43 -73 -181 -64 -56 4 -93 13 -125 29 -39 21 -53 23 -119 17 -41 -3
-79 -11 -84 -16 -16 -16 -66 -12 -73 6 -11 28 15 111 59 190 38 67 52 82 118
125 l75 50 15 -23 c8 -13 25 -33 38 -44z m-2581 -206 c-13 -38 -21 -47 -78
-75 -35 -18 -70 -32 -76 -33 -7 0 -13 -4 -13 -10 0 -21 -18 -8 -44 31 -15 22
-26 42 -24 43 2 2 24 11 50 21 26 9 55 26 64 36 9 11 24 19 33 19 9 0 34 7 56
14 22 8 41 11 43 6 2 -5 -3 -28 -11 -52z m-708 -163 c69 -14 161 -51 161 -64
0 -3 16 -24 35 -45 33 -37 47 -64 26 -52 -5 3 -23 1 -40 -5 -22 -8 -44 -8 -71
-1 -33 8 -43 7 -60 -8 -11 -9 -20 -24 -20 -33 0 -27 -19 -29 -26 -2 -8 34 -51
62 -113 76 -58 12 -72 24 -39 34 13 4 31 14 40 22 14 13 25 13 73 2 40 -9 59
-9 66 -2 18 18 2 31 -47 39 -24 3 -55 15 -67 24 -21 18 -23 18 -42 1 -11 -9
-49 -30 -85 -46 -36 -16 -81 -46 -101 -67 -20 -21 -43 -38 -52 -38 -8 0 -17
-7 -21 -15 -3 -8 -12 -15 -21 -15 -18 0 -19 4 -2 32 19 34 31 45 83 76 31 18
50 36 52 50 2 13 -2 22 -10 22 -29 0 -122 -57 -151 -93 -18 -22 -42 -50 -54
-63 -13 -13 -20 -29 -17 -38 4 -11 0 -16 -14 -16 -51 0 -38 60 21 96 57 36 96
75 97 97 0 27 -36 21 -73 -12 -17 -16 -52 -44 -77 -63 -25 -19 -46 -44 -48
-56 -4 -27 -32 -29 -32 -3 0 35 11 50 60 81 30 19 50 40 52 53 3 21 10 22 126
29 68 4 127 9 130 12 11 12 193 6 261 -9z"/>
<path d="M4100 9583 c-52 -14 -97 -27 -99 -29 -11 -10 25 -35 43 -30 19 5 20
4 4 -8 -26 -20 -22 -26 17 -26 34 0 122 25 179 51 31 14 34 39 6 39 -11 0 -23
7 -26 15 -8 19 -9 19 -124 -12z"/>
<path d="M4622 6993 c-55 -4 -63 -6 -57 -21 17 -39 16 -61 -5 -93 -20 -30 -28
-34 -65 -34 -24 0 -46 -3 -50 -7 -4 -3 1 -22 10 -42 13 -26 24 -36 41 -36 26
0 44 24 37 51 -6 23 14 25 38 3 23 -21 42 -8 36 23 -4 20 1 27 24 35 25 8 27
12 16 29 -6 10 -17 19 -24 19 -7 0 -13 4 -13 9 0 11 25 21 54 21 25 0 46 17
46 37 0 7 -6 12 -12 11 -7 -1 -42 -3 -76 -5z"/>
<path d="M4020 7761 c-57 -31 -107 -97 -124 -166 -9 -35 -9 -149 -1 -176 11
-33 38 -20 119 57 60 58 76 78 66 87 -9 9 -16 7 -29 -8 -9 -11 -37 -38 -60
-60 -40 -38 -42 -39 -39 -15 2 14 9 24 15 23 7 -2 15 6 18 17 4 11 13 20 21
20 8 0 14 5 14 10 0 6 9 19 20 30 14 14 21 16 27 7 10 -15 21 56 22 136 1 65
-8 70 -69 38z"/>
<path d="M5833 5153 c4 -32 11 -112 17 -178 12 -137 26 -193 44 -175 16 16 10
195 -12 310 -14 77 -21 95 -36 98 -17 4 -18 -1 -13 -55z"/>
</g>
</svg>
